<svg xmlns="http://www.w3.org/2000/svg" width="1024" height="1024" viewBox="0 0 1024 1024">
  <defs>
    <linearGradient id="bg2" x1="0" y1="0" x2="1" y2="1">
      <stop offset="0%" stop-color="#224838"/>
      <stop offset="100%" stop-color="#0f231d"/>
    </linearGradient>
    <linearGradient id="gold2" x1="0" y1="0" x2="1" y2="0">
      <stop offset="0%" stop-color="#c69a2a"/>
      <stop offset="50%" stop-color="#f0d777"/>
      <stop offset="100%" stop-color="#a77a19"/>
    </linearGradient>
  </defs>

  <rect width="1024" height="1024" fill="url(#bg2)"/>
  <rect x="56" y="56" width="912" height="912" rx="32" fill="none" stroke="url(#gold2)" stroke-width="10"/>
  <rect x="104" y="104" width="816" height="816" rx="22" fill="none" stroke="#e7c75a" stroke-width="3"/>

  <g opacity="0.22" fill="#f3db7d">
    <path d="M120 140h784v24H120zM120 860h784v24H120z"/>
    <path d="M140 120h24v784h-24zM860 120h24v784h-24z"/>
  </g>

  <g fill="#e9cc67">
    <circle cx="512" cy="190" r="10"/>
    <circle cx="512" cy="834" r="10"/>
  </g>

  <text x="512" y="286" text-anchor="middle" direction="rtl"
    font-family="Amiri, 'Scheherazade New', serif" font-size="82" font-weight="700" fill="#f8e9a9">
    مُصْحَفُ الجَمَاهِيرِيَّةِ
  </text>

  <text x="512" y="408" text-anchor="middle" direction="rtl"
    font-family="Amiri, 'Scheherazade New', serif" font-size="56" font-weight="700" fill="#f4df92">
    بِرِوَايَةِ الإِمَامِ قَالُونَ
  </text>

  <text x="512" y="540" text-anchor="middle" direction="rtl"
    font-family="Amiri, 'Scheherazade New', serif" font-size="40" font-weight="700" fill="#f0d883">
    وَالرَّسْمِ العُثْمَانِيِّ
  </text>

  <text x="512" y="604" text-anchor="middle" direction="rtl"
    font-family="Amiri, 'Scheherazade New', serif" font-size="40" font-weight="700" fill="#f0d883">
    عَلَى مَا اخْتَارَهُ الحَافِظُ أَبُو عَمْرٍو الدَّانِي
  </text>

  <g stroke="#e7c75a" fill="none" opacity="0.9">
    <path d="M292 168c36 26 72 26 108 0c36 26 72 26 108 0c36 26 72 26 108 0c36 26 72 26 108 0" stroke-width="4"/>
    <path d="M292 730c36-26 72-26 108 0c36-26 72-26 108 0c36-26 72-26 108 0c36-26 72-26 108 0" stroke-width="4"/>
  </g>
</svg>
